<svg width="1137" height="244" viewBox="0 0 1137 244" fill="none" xmlns="http://www.w3.org/2000/svg">
<g clip-path="url(#clip0_1096_13923)">
<rect width="1137" height="244" rx="16" fill="#EBFAFF"/>
<path d="M1122.72 -95.0009L954 -32.7227L1016.28 135.999L1185 73.721L1122.72 -95.0009Z" stroke="#99DBFD" stroke-width="0.75" stroke-linecap="round" stroke-linejoin="round"/>
<path d="M1005.89 107.879L1174.62 45.5938" stroke="#99DBFD" stroke-width="0.75" stroke-linecap="round" stroke-linejoin="round"/>
<path d="M995.525 79.785L1164.25 17.5" stroke="#99DBFD" stroke-width="0.75" stroke-linecap="round" stroke-linejoin="round"/>
<path d="M985.135 51.6522L1153.87 -10.6328" stroke="#99DBFD" stroke-width="0.75" stroke-linecap="round" stroke-linejoin="round"/>
<path d="M974.756 23.5114L1143.48 -38.7617" stroke="#99DBFD" stroke-width="0.75" stroke-linecap="round" stroke-linejoin="round"/>
<path d="M1094.59 -84.6094L1156.87 84.1151" stroke="#99DBFD" stroke-width="0.75" stroke-linecap="round" stroke-linejoin="round"/>
<path d="M1066.5 -74.2422L1128.78 94.4941" stroke="#99DBFD" stroke-width="0.75" stroke-linecap="round" stroke-linejoin="round"/>
<path d="M1038.37 -63.8516L1100.64 104.873" stroke="#99DBFD" stroke-width="0.75" stroke-linecap="round" stroke-linejoin="round"/>
<path d="M1010.22 -53.4688L1072.51 115.268" stroke="#99DBFD" stroke-width="0.75" stroke-linecap="round" stroke-linejoin="round"/>
<path d="M982.129 -43.1055L1044.41 125.631" stroke="#99DBFD" stroke-width="0.75" stroke-linecap="round" stroke-linejoin="round"/>
<path d="M139.385 172.997L121.669 179.566L118.478 171.017L129.469 166.941L128.091 152.017L142.45 146.69L141.073 131.756L155.436 126.435L154.059 111.501L171.787 104.915L174.979 113.464L163.977 117.549L165.352 132.491L150.989 137.813L152.366 152.746L138.012 158.069L139.385 172.997Z" fill="#14090E" stroke="#14090E" stroke-width="4" stroke-linecap="round" stroke-linejoin="round"/>
<path d="M134.239 169.768L116.52 176.332L113.328 167.783L124.323 163.711L122.941 148.782L137.3 143.455L135.923 128.522L150.286 123.2L148.915 108.263L166.632 101.685L169.829 110.23L158.827 114.315L160.203 129.257L145.84 134.579L147.216 149.512L132.863 154.835L134.239 169.768Z" fill="#02A7FC" stroke="#14090E" stroke-width="4" stroke-linecap="round" stroke-linejoin="round"/>
<path d="M966.733 160.882C966.004 160.498 965.204 160.256 964.379 160.172C963.554 160.088 962.72 160.163 961.924 160.392C961.129 160.621 960.388 161 959.744 161.508C959.1 162.015 958.565 162.641 958.17 163.35C956.325 166.555 953.255 168.925 949.623 169.947C945.992 170.97 942.092 170.562 938.768 168.812C935.443 167.063 932.963 164.112 931.863 160.599C930.764 157.087 931.133 153.295 932.892 150.045C933.691 148.615 933.872 146.936 933.395 145.377C932.918 143.818 931.823 142.506 930.351 141.731C928.878 140.955 927.149 140.78 925.543 141.243C923.937 141.705 922.586 142.769 921.788 144.198C918.372 150.313 917.598 157.495 919.636 164.164C921.674 170.833 926.357 176.443 932.654 179.759C938.952 183.076 946.348 183.827 953.217 181.849C960.085 179.87 965.863 175.323 969.278 169.208C969.675 168.5 969.925 167.722 970.012 166.919C970.099 166.117 970.022 165.306 969.785 164.532C969.549 163.759 969.157 163.038 968.634 162.412C968.11 161.785 967.464 161.266 966.733 160.882Z" fill="#14090E" stroke="#14090E" stroke-width="4" stroke-linecap="round" stroke-linejoin="round"/>
<path d="M963.653 168.021C962.753 169.633 961.536 171.057 960.069 172.211C958.603 173.366 956.917 174.229 955.108 174.751C953.298 175.273 951.4 175.444 949.523 175.254C947.645 175.064 945.824 174.516 944.165 173.643C942.505 172.77 941.038 171.587 939.849 170.164C938.66 168.74 937.771 167.103 937.234 165.346C936.696 163.589 936.52 161.746 936.716 159.923C936.912 158.1 937.475 156.332 938.375 154.721L927.267 148.874C924.062 154.969 923.439 162.039 925.528 168.574C927.618 175.11 932.255 180.593 938.451 183.855C944.647 187.117 951.91 187.898 958.691 186.032C965.471 184.166 971.233 179.801 974.745 173.868L963.653 168.021Z" fill="#FF6EAD" stroke="#14090E" stroke-width="4" stroke-linecap="round" stroke-linejoin="round"/>
<path d="M938.375 154.72C937.779 155.787 936.871 156.658 935.765 157.224C934.659 157.79 933.405 158.024 932.162 157.898C930.919 157.771 929.743 157.29 928.781 156.514C927.82 155.739 927.117 154.704 926.762 153.54C926.406 152.377 926.414 151.137 926.784 149.978C927.154 148.819 927.87 147.792 928.841 147.028C929.812 146.264 930.995 145.797 932.24 145.685C933.484 145.574 934.735 145.823 935.834 146.402C936.563 146.786 937.208 147.306 937.731 147.931C938.253 148.557 938.644 149.277 938.88 150.05C939.116 150.822 939.193 151.632 939.106 152.434C939.02 153.235 938.771 154.012 938.375 154.72Z" fill="#02A7FC" stroke="#14090E" stroke-width="4" stroke-linecap="round" stroke-linejoin="round"/>
<path d="M354 54.1829L344.628 48.6773L350.3 39.5806L340.802 34L335.129 43.0966L325.757 37.5909L320 46.8171L329.372 52.3227L323.7 61.4126L333.205 67L338.878 57.9034L348.243 63.4091L354 54.1829Z" fill="white" stroke="#14090E" stroke-width="3" stroke-linecap="round" stroke-linejoin="round"/>
</g>
<defs>
<clipPath id="clip0_1096_13923">
<rect width="1137" height="244" rx="16" fill="white"/>
</clipPath>
</defs>
</svg>
