<svg width="1440" height="777" viewBox="0 0 1440 777" fill="none" xmlns="http://www.w3.org/2000/svg">
<g clip-path="url(#clip0_983_3435)">
<g filter="url(#filter0_b_983_3435)">
<rect width="1440" height="777" fill="#EBFAFF"/>
</g>
<path d="M342 488.583L335.1 483L320.453 487.556L303 512.967L308.101 516.476L318.888 516.989L303.352 536.512L306.991 540L338.34 511.982L332.901 506.58L330.606 506.621L342 488.583Z" fill="#FF8717" stroke="#14090E" stroke-width="4" stroke-linecap="round" stroke-linejoin="round"/>
<path d="M335.1 483L313.532 483.326L303 512.967L313.801 512.807L303.352 536.512L332.901 506.58L322.1 506.746L335.1 483Z" fill="#FFD12B" stroke="#14090E" stroke-width="4" stroke-linecap="round" stroke-linejoin="round"/>
<path d="M1320.5 221.125C1315.65 221.125 1310.92 222.588 1306.89 225.328C1302.86 228.068 1299.72 231.963 1297.86 236.519C1296.01 241.076 1295.53 246.09 1296.47 250.928C1297.42 255.765 1299.75 260.208 1303.18 263.696C1306.6 267.184 1310.97 269.559 1315.72 270.521C1320.47 271.483 1325.4 270.989 1329.88 269.102C1334.35 267.214 1338.18 264.018 1340.87 259.917C1343.56 255.816 1345 250.995 1345 246.062C1345 242.788 1344.37 239.545 1343.14 236.519C1341.9 233.494 1340.1 230.745 1337.82 228.429C1335.55 226.113 1332.85 224.276 1329.88 223.023C1326.9 221.77 1323.72 221.125 1320.5 221.125ZM1320.5 259.432C1317.9 259.432 1315.36 258.648 1313.2 257.179C1311.04 255.71 1309.36 253.622 1308.37 251.179C1307.37 248.736 1307.11 246.048 1307.62 243.454C1308.12 240.861 1309.38 238.479 1311.21 236.609C1313.05 234.739 1315.39 233.466 1317.94 232.95C1320.49 232.434 1323.13 232.699 1325.53 233.711C1327.93 234.723 1329.98 236.436 1331.42 238.635C1332.86 240.833 1333.63 243.418 1333.63 246.062C1333.63 249.608 1332.25 253.008 1329.79 255.515C1327.32 258.022 1323.98 259.431 1320.5 259.432Z" fill="#14090E" stroke="#14090E" stroke-width="4" stroke-linecap="round" stroke-linejoin="round"/>
<path d="M1313.5 215C1308.65 215 1303.92 216.437 1299.89 219.129C1295.86 221.821 1292.72 225.647 1290.86 230.124C1289.01 234.601 1288.53 239.527 1289.47 244.28C1290.42 249.032 1292.75 253.398 1296.18 256.824C1299.6 260.25 1303.97 262.584 1308.72 263.529C1313.47 264.475 1318.4 263.989 1322.88 262.135C1327.35 260.281 1331.18 257.14 1333.87 253.111C1336.56 249.082 1338 244.346 1338 239.5C1338 233.002 1335.42 226.771 1330.82 222.176C1326.23 217.581 1320 215 1313.5 215ZM1313.5 252.635C1310.9 252.635 1308.36 251.864 1306.2 250.421C1304.04 248.978 1302.36 246.927 1301.37 244.526C1300.37 242.126 1300.11 239.485 1300.62 236.938C1301.12 234.39 1302.38 232.049 1304.21 230.212C1306.05 228.375 1308.39 227.124 1310.94 226.618C1313.49 226.111 1316.13 226.371 1318.53 227.365C1320.93 228.359 1322.98 230.043 1324.42 232.203C1325.86 234.363 1326.63 236.902 1326.63 239.5C1326.63 242.983 1325.25 246.323 1322.79 248.786C1320.32 251.249 1316.98 252.634 1313.5 252.635Z" fill="#FFD12B" stroke="#14090E" stroke-width="4" stroke-linecap="round" stroke-linejoin="round"/>
<path d="M960.742 268.995L944.834 259.074L942.85 277.714L918 272.157L938.239 296L978 276.636L971.676 246L960.742 268.995Z" fill="#FFD12B" stroke="#14090E" stroke-width="4" stroke-linecap="round" stroke-linejoin="round"/>
<path d="M138.43 244.62L125.08 236.54L133.16 223.19L119.63 215L111.55 228.35L98.2 220.27L90 233.81L103.35 241.89L95.27 255.23L108.81 263.43L116.89 250.08L130.23 258.16L138.43 244.62Z" fill="white" stroke="#14090E" stroke-width="4" stroke-linecap="round" stroke-linejoin="round"/>
<path d="M1147.75 590.634C1146.98 590.217 1146.13 589.955 1145.27 589.864C1144.4 589.773 1143.52 589.854 1142.68 590.103C1141.84 590.351 1141.06 590.763 1140.38 591.313C1139.7 591.864 1139.14 592.543 1138.72 593.311C1136.78 596.788 1133.55 599.36 1129.72 600.469C1125.9 601.579 1121.79 601.136 1118.29 599.238C1114.78 597.34 1112.17 594.139 1111.01 590.328C1109.85 586.517 1110.24 582.403 1112.1 578.877C1112.94 577.326 1113.13 575.504 1112.63 573.812C1112.12 572.12 1110.97 570.698 1109.42 569.856C1107.87 569.015 1106.05 568.825 1104.35 569.327C1102.66 569.829 1101.24 570.982 1100.4 572.534C1096.8 579.168 1095.99 586.96 1098.13 594.195C1100.28 601.43 1105.21 607.516 1111.85 611.115C1118.48 614.713 1126.27 615.528 1133.51 613.381C1140.74 611.235 1146.83 606.302 1150.43 599.668C1150.85 598.899 1151.11 598.055 1151.2 597.184C1151.29 596.314 1151.21 595.433 1150.96 594.594C1150.71 593.755 1150.3 592.973 1149.75 592.294C1149.2 591.614 1148.52 591.05 1147.75 590.634Z" fill="#14090E" stroke="#14090E" stroke-width="4" stroke-linecap="round" stroke-linejoin="round"/>
<path d="M1144.5 598.382C1143.55 600.131 1142.27 601.675 1140.73 602.928C1139.18 604.181 1137.41 605.117 1135.5 605.684C1133.59 606.25 1131.59 606.435 1129.62 606.229C1127.64 606.023 1125.72 605.429 1123.97 604.481C1122.22 603.534 1120.68 602.251 1119.43 600.707C1118.17 599.162 1117.24 597.386 1116.67 595.48C1116.1 593.573 1115.92 591.574 1116.12 589.596C1116.33 587.618 1116.92 585.7 1117.87 583.952L1106.17 577.609C1102.79 584.221 1102.14 591.892 1104.34 598.982C1106.54 606.073 1111.43 612.022 1117.95 615.561C1124.48 619.099 1132.13 619.947 1139.27 617.923C1146.42 615.898 1152.49 611.162 1156.19 604.725L1144.5 598.382Z" fill="#FF6EAD" stroke="#14090E" stroke-width="4" stroke-linecap="round" stroke-linejoin="round"/>
<path d="M1117.87 583.952C1117.24 585.109 1116.29 586.055 1115.12 586.668C1113.96 587.282 1112.64 587.536 1111.33 587.399C1110.02 587.262 1108.78 586.74 1107.77 585.898C1106.75 585.057 1106.01 583.934 1105.64 582.672C1105.26 581.409 1105.27 580.064 1105.66 578.807C1106.05 577.549 1106.81 576.435 1107.83 575.606C1108.85 574.777 1110.1 574.27 1111.41 574.15C1112.72 574.029 1114.04 574.299 1115.2 574.927C1115.96 575.344 1116.64 575.907 1117.19 576.586C1117.74 577.266 1118.16 578.046 1118.4 578.885C1118.65 579.723 1118.73 580.602 1118.64 581.471C1118.55 582.341 1118.29 583.184 1117.87 583.952Z" fill="#02A7FC" stroke="#14090E" stroke-width="4" stroke-linecap="round" stroke-linejoin="round"/>
<path d="M541.588 260L521.358 253.823L524.381 243.753L536.933 247.584L545.933 232.899L562.332 237.903L571.34 223.21L587.739 228.222L596.747 213.528L617 219.698L613.977 229.768L601.41 225.937L592.394 240.638L575.995 235.626L566.987 250.319L550.596 245.314L541.588 260Z" fill="#14090E" stroke="#14090E" stroke-width="4" stroke-linecap="round" stroke-linejoin="round"/>
<path d="M539.23 253.48L519 247.294L522.023 237.225L534.575 241.064L543.576 226.37L559.974 231.375L568.982 216.681L585.381 221.693L594.397 207L614.635 213.17L611.619 223.24L599.052 219.408L590.036 234.109L573.638 229.097L564.63 243.791L548.238 238.786L539.23 253.48Z" fill="#02A7FC" stroke="#14090E" stroke-width="4" stroke-linecap="round" stroke-linejoin="round"/>
<g clip-path="url(#clip1_983_3435)">
<path d="M1532.24 512L1327 587.665L1402.76 792.654L1608 716.989L1532.24 512Z" stroke="#1053D4" stroke-width="0.75" stroke-linecap="round" stroke-linejoin="round"/>
<path d="M1390.12 758.489L1595.37 682.815" stroke="#1053D4" stroke-width="0.75" stroke-linecap="round" stroke-linejoin="round"/>
<path d="M1377.51 724.354L1582.76 648.681" stroke="#1053D4" stroke-width="0.75" stroke-linecap="round" stroke-linejoin="round"/>
<path d="M1364.87 690.179L1570.13 614.506" stroke="#1053D4" stroke-width="0.75" stroke-linecap="round" stroke-linejoin="round"/>
<path d="M1352.25 655.987L1557.49 580.328" stroke="#1053D4" stroke-width="0.75" stroke-linecap="round" stroke-linejoin="round"/>
<path d="M1339.64 621.852L1544.88 546.193" stroke="#1053D4" stroke-width="0.75" stroke-linecap="round" stroke-linejoin="round"/>
<path d="M1429.63 549.848L1505.38 754.84" stroke="#1053D4" stroke-width="0.75" stroke-linecap="round" stroke-linejoin="round"/>
<path d="M1395.39 562.457L1471.16 767.464" stroke="#1053D4" stroke-width="0.75" stroke-linecap="round" stroke-linejoin="round"/>
<path d="M1361.22 575.051L1436.98 780.057" stroke="#1053D4" stroke-width="0.75" stroke-linecap="round" stroke-linejoin="round"/>
</g>
<g clip-path="url(#clip2_983_3435)">
<path d="M2.24165 338L-203 413.665L-127.242 618.654L78 542.989L2.24165 338Z" stroke="#1053D4" stroke-width="0.75" stroke-linecap="round" stroke-linejoin="round"/>
<path d="M-139.876 584.489L65.3693 508.815" stroke="#1053D4" stroke-width="0.75" stroke-linecap="round" stroke-linejoin="round"/>
<path d="M-152.486 550.354L52.7585 474.681" stroke="#1053D4" stroke-width="0.75" stroke-linecap="round" stroke-linejoin="round"/>
<path d="M-165.126 516.179L40.1331 440.506" stroke="#1053D4" stroke-width="0.75" stroke-linecap="round" stroke-linejoin="round"/>
<path d="M-177.752 481.987L27.4934 406.328" stroke="#1053D4" stroke-width="0.75" stroke-linecap="round" stroke-linejoin="round"/>
<path d="M-190.363 447.852L14.8823 372.193" stroke="#1053D4" stroke-width="0.75" stroke-linecap="round" stroke-linejoin="round"/>
<path d="M-31.9768 350.625L43.7754 555.617" stroke="#1053D4" stroke-width="0.75" stroke-linecap="round" stroke-linejoin="round"/>
<path d="M-66.1532 363.221L9.61338 568.227" stroke="#1053D4" stroke-width="0.75" stroke-linecap="round" stroke-linejoin="round"/>
</g>
</g>
<defs>
<filter id="filter0_b_983_3435" x="-20" y="-20" width="1480" height="817" filterUnits="userSpaceOnUse" color-interpolation-filters="sRGB">
<feFlood flood-opacity="0" result="BackgroundImageFix"/>
<feGaussianBlur in="BackgroundImageFix" stdDeviation="10"/>
<feComposite in2="SourceAlpha" operator="in" result="effect1_backgroundBlur_983_3435"/>
<feBlend mode="normal" in="SourceGraphic" in2="effect1_backgroundBlur_983_3435" result="shape"/>
</filter>
<clipPath id="clip0_983_3435">
<rect width="1440" height="777" fill="white"/>
</clipPath>
<clipPath id="clip1_983_3435">
<rect width="281" height="260" fill="white" transform="translate(1327 512)"/>
</clipPath>
<clipPath id="clip2_983_3435">
<rect width="281" height="260" fill="white" transform="translate(-203 338)"/>
</clipPath>
</defs>
</svg>
