<svg width="357" height="65" viewBox="0 0 357 65" fill="none" xmlns="http://www.w3.org/2000/svg">
<path d="M344.409 58.6644C326.137 57.143 308.134 55.7102 289.978 55.5198C309.562 57.5811 329.407 58.1917 348.856 60.9337C349.002 60.9543 349.046 61.343 349.264 61.8598C343.976 62.3302 338.982 60.1624 333.508 61.4997C341.055 63.2736 348.942 62.5344 356.643 64.2044C354.987 65.2033 353.724 64.8152 352.491 64.7193C343.418 64.014 334.278 62.4777 325.242 63.0938C307.933 64.2739 291.148 61.3556 274.066 61.0025C261.343 60.7394 248.645 60.0296 235.926 59.6441C209.922 58.8559 183.892 58.7839 157.857 58.7942C143.165 58.8 128.426 58.8783 113.812 58.0594C105.993 57.6213 98.1897 57.8637 90.422 57.3666C89.0144 57.2766 88.8292 57.7514 88.4843 58.383C83.8345 56.2996 78.2155 57.6898 73.2326 56.0958C74.7804 54.7344 76.8183 55.6875 78.5787 55.1567C78.7278 54.4768 76.9971 54.3423 77.5759 53.3725C79.1643 52.027 81.848 53.3278 84.5567 52.0658C77.1574 50.806 70.0433 51.6447 63.3803 49.9071C66.9688 49.0503 70.5144 48.2149 73.8712 47.0186C80.9868 44.4828 88.6687 44.4523 96.3135 43.8834C106.599 43.1179 116.89 43.3556 127.169 42.8262C119.168 42.0674 111.111 42.586 103.082 42.5316C99.4937 42.5073 95.8967 42.7514 92.3062 42.9093C91.2868 42.9541 90.3072 43.0047 89.6969 42.2846C89.062 41.5355 90.2364 41.1911 90.5766 40.7001C89.945 40.1416 89.1269 39.9656 88.4375 40.1799C83.6953 41.6541 78.9759 41.4782 74.2374 40.3215C74.1348 40.2965 73.998 40.2393 73.9272 40.2668C69.8794 41.8367 65.7646 39.8795 61.5112 40.5784C57.0363 41.3136 52.4148 41.5033 47.5631 40.1483C44.4117 39.2682 40.1789 39.3947 36.3887 39.46C26.0354 39.6384 15.6816 39.7965 5.32765 39.9174C3.90523 39.9341 2.32238 40.2017 0.335403 38.9816C8.16494 38.0386 15.9355 38.7888 22.1801 34.8502C20.5853 34.1792 19.0133 34.3706 17.6323 34.6687C15.1061 35.2139 13.5377 34.7982 13.0323 33.0886C17.8049 29.5591 25.191 30.9208 29.676 27.596C27.4047 27.3921 24.5538 27.9116 21.8838 26.8912C27.8588 25.5029 34.2306 25.2075 40.5944 22.9095C30.3826 20.8331 19.9563 22.8467 10.5355 19.5705C11.8683 18.2884 13.5203 18.7966 14.9132 18.6179C15.9635 18.4832 17.3251 18.5887 17.4639 17.5275C17.6007 16.4816 16.2737 16.3342 15.248 16.1252C14.4387 15.9603 13.5893 15.8967 12.4317 15.7456C13.3917 14.635 14.7412 14.5811 15.9001 14.688C24.4971 15.4808 32.874 13.7962 41.0368 12.5366C52.3319 10.7935 63.5908 11.3999 74.8449 10.7833C77.8353 10.6194 81.1822 11.0213 82.2097 7.85393C82.5409 6.83294 84.5352 6.89708 85.9702 6.83785C91.3802 6.61454 96.8193 6.70279 102.228 5.84589C98.1717 5.22417 93.7954 5.83806 89.7816 4.40757C91.0058 3.34169 92.4038 3.61989 93.6443 3.58221C103.339 3.28774 113.031 3.17356 122.729 3.37791C128.484 3.49919 134.259 3.59947 139.743 1.73103C141.612 1.09422 143.785 1.15733 145.865 1.09949C170.603 0.411761 195.329 0.776027 220.057 0.953216C221.811 0.965791 223.559 1.112 225.122 1.71504C226.312 2.17393 227.571 2.36591 228.872 2.44441C237.818 2.9841 246.746 3.6654 255.749 3.67868C260.069 3.68506 264.386 3.90791 269.08 4.04355C267.864 5.53895 266.199 5.1907 264.878 5.19689C252.242 5.2561 239.604 5.11451 226.971 5.30867C217.306 5.45722 207.642 4.9231 197.308 5.47937C198.978 6.30535 200.254 6.0231 201.426 5.97408C211.783 5.54071 222.307 5.41575 232.249 7.19127C242.979 9.10734 253.708 8.06816 264.397 8.67089C271.755 9.08576 279.144 9.39501 286.502 9.8472C288.941 9.99709 291.282 10.9099 293.813 11.5082C292.915 12.6689 291.776 12.0372 290.828 12.0587C287.41 12.1362 284.009 11.6774 280.744 13.2808C279.333 13.9738 276.968 13.6237 274.248 13.7979C282.662 14.8541 290.335 15.8249 298.013 16.7785C304.22 17.5497 310.408 18.4388 316.653 19.0116C320.873 19.3985 323.417 21.8213 327.025 22.9086C330.298 23.895 332.525 25.9978 336.047 26.9759C339.682 27.9852 342.65 30.4172 343.995 33.2661C344.607 34.5618 346.847 34.1501 346.976 35.2416C343.66 38.1264 338.989 37.9314 334.921 38.1034C334.271 39.7855 336.514 39.3185 336.584 40.301C334.875 41.7786 332.569 41.7898 330.121 41.7169C321.975 41.474 313.824 41.3076 305.648 41.314C314.314 42.5814 323.204 42.6423 331.91 43.7256C327.93 44.9756 323.98 43.9881 320.009 44.0942C327.596 46.1895 335.82 45.4318 343.681 46.4269C343.388 47.3731 342.548 47.3103 341.821 47.4248C334.289 48.6104 326.758 47.9817 319.221 47.6239C307.286 47.0575 295.34 46.5876 283.412 45.9659C271.593 45.3499 259.789 44.6079 247.982 43.8999C239.312 43.3801 230.652 42.7429 221.924 42.9771C220.453 43.0165 218.986 43.1795 217.319 43.2998C218.069 44.118 218.913 43.8706 219.578 43.8606C229.193 43.7159 238.643 44.9746 248.187 45.4316C257.945 45.8989 267.692 46.5078 277.421 47.2057C290.183 48.1212 302.904 49.3266 315.678 50.1354C324.444 50.6904 332.656 53.0723 341.391 53.6716C343.666 53.8276 346.11 54.1429 347.905 55.4714C347.33 56.4828 346.191 56.0668 344.857 56.186C346.391 56.8969 348.177 56.6622 349.097 57.8596C347.87 58.9131 346.266 58.7803 344.409 58.6644Z" fill="#D8F9EF"/>
</svg>
